<!--
Copyright (c) 2026 Wonder Piece Studio.
All Rights Reserved.
-->
<svg xmlns="http://www.w3.org/2000/svg" viewBox="0 0 256 256" role="img" aria-labelledby="title desc">
  <title id="title">BayouFinds emblem</title>
  <desc id="desc">BayouFinds enterprise emblem for boot, login, and desktop branding.</desc>
  <defs>
    <linearGradient id="markGradient" x1="0" x2="1" y1="0" y2="1">
      <stop offset="0" stop-color="#5fbf7a"/>
      <stop offset="1" stop-color="#5f8fb8"/>
    </linearGradient>
    <radialGradient id="glow" cx="50%" cy="45%" r="60%">
      <stop offset="0" stop-color="#2c4b4e"/>
      <stop offset="1" stop-color="#10161d"/>
    </radialGradient>
  </defs>
  <rect width="256" height="256" rx="42" fill="#0d1218"/>
  <circle cx="128" cy="128" r="92" fill="url(#glow)" stroke="#263849" stroke-width="5"/>
  <path d="M73 150c20-27 48-43 82-48 18-3 36-11 52-25-8 36-24 64-51 84-27 20-56 25-86 15 11-4 21-12 30-23-10 2-19 1-27-3z" fill="url(#markGradient)"/>
  <path d="M78 170c33 12 66 11 99-4" fill="none" stroke="#5f8fb8" stroke-width="10" stroke-linecap="round" opacity="0.8"/>
  <path d="M91 117h65m-50 23h74" fill="none" stroke="#d8efe1" stroke-width="8" stroke-linecap="round" opacity="0.58"/>
</svg>
