<!--
Copyright (c) 2026 Wonder Piece Studio.
All Rights Reserved.
-->
<svg xmlns="http://www.w3.org/2000/svg" viewBox="0 0 512 512" role="img" aria-labelledby="title desc">
  <title id="title">YAML file</title><desc id="desc">BayouFinds Aqua Pro YAML file icon.</desc>
  <defs><linearGradient id="page" x1="0" x2="1" y1="0" y2="1"><stop offset="0" stop-color="#c9dc8f"/><stop offset=".52" stop-color="#8fae52"/><stop offset="1" stop-color="#42562b"/></linearGradient><filter id="shadow" x="-20%" y="-20%" width="140%" height="150%"><feDropShadow dx="0" dy="22" stdDeviation="20" flood-color="#000" flood-opacity=".35"/></filter></defs>
  <g filter="url(#shadow)"><path d="M112 54h202l86 86v304c0 28-22 50-50 50H112c-28 0-50-22-50-50V104c0-28 22-50 50-50z" fill="url(#page)"/><path d="M314 54v78c0 14 12 26 26 26h60z" fill="#f6ffd9" opacity=".35"/><path d="M150 236h82m48 0h82M150 292h124m48 0h40M150 348h72m48 0h92" stroke="#253315" stroke-width="18" stroke-linecap="round" opacity=".38"/><text x="256" y="430" text-anchor="middle" fill="#f7ffd8" font-family="Inter, Segoe UI, Arial, sans-serif" font-size="52" font-weight="800">YML</text></g>
</svg>
