<!--
Copyright (c) 2026 Wonder Piece Studio.
All Rights Reserved.
-->
<svg xmlns="http://www.w3.org/2000/svg" viewBox="0 0 512 512" role="img" aria-labelledby="title desc">
  <title id="title">Image file</title><desc id="desc">BayouFinds Aqua Pro image file icon.</desc>
  <defs><linearGradient id="page" x1="0" x2="1" y1="0" y2="1"><stop offset="0" stop-color="#a8e8d4"/><stop offset=".52" stop-color="#5abf9c"/><stop offset="1" stop-color="#2e705e"/></linearGradient><filter id="shadow" x="-20%" y="-20%" width="140%" height="150%"><feDropShadow dx="0" dy="22" stdDeviation="20" flood-color="#000" flood-opacity=".35"/></filter></defs>
  <g filter="url(#shadow)"><path d="M112 54h202l86 86v304c0 28-22 50-50 50H112c-28 0-50-22-50-50V104c0-28 22-50 50-50z" fill="url(#page)"/><path d="M314 54v78c0 14 12 26 26 26h60z" fill="#e5fff7" opacity=".35"/><rect x="132" y="210" width="248" height="146" rx="20" fill="#0e3a31" opacity=".24"/><path d="m151 338 61-66 44 45 35-36 70 57z" fill="#e9fff7" opacity=".38"/><circle cx="326" cy="248" r="20" fill="#e9fff7" opacity=".38"/><text x="256" y="430" text-anchor="middle" fill="#effff9" font-family="Inter, Segoe UI, Arial, sans-serif" font-size="52" font-weight="800">IMG</text></g>
</svg>
