<!--
Copyright (c) 2026 Wonder Piece Studio.
All Rights Reserved.
-->
<svg xmlns="http://www.w3.org/2000/svg" viewBox="0 0 512 512" role="img" aria-labelledby="title desc">
  <title id="title">BayouOps report</title><desc id="desc">BayouFinds Aqua Pro BayouOps report/export/snapshot icon.</desc>
  <defs><linearGradient id="page" x1="0" x2="1" y1="0" y2="1"><stop offset="0" stop-color="#b7f0c7"/><stop offset=".5" stop-color="#5fbf7a"/><stop offset="1" stop-color="#2f7f55"/></linearGradient><filter id="shadow" x="-20%" y="-20%" width="140%" height="150%"><feDropShadow dx="0" dy="22" stdDeviation="20" flood-color="#000" flood-opacity=".35"/></filter></defs>
  <g filter="url(#shadow)"><path d="M112 54h202l86 86v304c0 28-22 50-50 50H112c-28 0-50-22-50-50V104c0-28 22-50 50-50z" fill="url(#page)"/><path d="M314 54v78c0 14 12 26 26 26h60z" fill="#e8fff0" opacity=".36"/><path d="M148 338c38-25 81-35 127-29 28 3 55-3 81-20-18 38-46 62-84 74-40 12-82 5-124-23 16 1 33-4 49-13-16 3-33 4-49 1z" fill="#0b321f" opacity=".28"/><path d="M150 224h190m-190 48h148" stroke="#effff4" stroke-width="18" stroke-linecap="round" opacity=".32"/><text x="256" y="430" text-anchor="middle" fill="#effff4" font-family="Inter, Segoe UI, Arial, sans-serif" font-size="44" font-weight="800">OPS</text></g>
</svg>
