<svg xmlns="http://www.w3.org/2000/svg" viewBox="0 0 1280 640" role="img" aria-labelledby="title desc">
  <title id="title">BayouOps GitHub social banner</title>
  <desc id="desc">Dark operational platform banner for BayouOps.</desc>
  <rect width="1280" height="640" fill="#0B1220"/>
  <path d="M0 470c190-62 302 58 474-2 184-64 268-218 488-158 126 34 205 8 318-56v386H0Z" fill="#101C2D"/>
  <path d="M0 508c208-58 322 48 484-14 184-70 272-218 492-150 112 35 195 8 304-54" fill="none" stroke="#C47A3A" stroke-width="6" opacity=".65"/>
  <g transform="translate(72 116) scale(.62)">
    
  <title id="title">BayouOps emblem</title>
  <desc id="desc">Hexagonal operational readiness emblem with radar, telemetry nodes, and a subtle bayou navigation line.</desc>
  
  <g fill="none" stroke="#F8FAFC" stroke-linecap="round" stroke-linejoin="round">
    <path d="M256 44 420 139v190L256 468 92 329V139L256 44Z" stroke-width="18"/>
    <path d="M256 83 384 157v149L256 414 128 306V157L256 83Z" stroke-width="8" opacity=".52"/>
    <circle cx="256" cy="256" r="77" stroke-width="12"/>
    <path d="M184 256a72 72 0 0 1 144 0" stroke="#38BDF8" stroke-width="10"/>
    <path d="M152 256a104 104 0 0 1 208 0" stroke="#38BDF8" stroke-width="7" opacity=".68"/>
    <path d="M120 256a136 136 0 0 1 272 0" stroke="#38BDF8" stroke-width="5" opacity=".42"/>
    <path d="M154 315c42-51 82-47 122-7 25 25 54 24 85-4" stroke="#C47A3A" stroke-width="12"/>
    <path d="M213 258h86" stroke="#1FB6A6" stroke-width="14"/>
    <path d="M256 215v86" stroke="#1FB6A6" stroke-width="14"/>
    <circle cx="256" cy="256" r="20" fill="#1FB6A6" stroke="none"/>
    <circle cx="154" cy="315" r="11" fill="#C47A3A" stroke="none"/>
    <circle cx="361" cy="304" r="11" fill="#C47A3A" stroke="none"/>
    <circle cx="159" cy="176" r="9" fill="#F8FAFC" stroke="none" opacity=".75"/>
    <circle cx="353" cy="176" r="9" fill="#F8FAFC" stroke="none" opacity=".75"/>
    <path d="M168 176h59M285 176h59M256 110v57M256 345v57" stroke-width="6" opacity=".55"/>
  </g>

  </g>
  <text x="420" y="252" fill="#F8FAFC" font-family="Inter, Segoe UI, Arial, sans-serif" font-size="86" font-weight="780">BayouOps</text>
  <text x="424" y="310" fill="#8FB7C8" font-family="Inter, Segoe UI, Arial, sans-serif" font-size="29" font-weight="560">Local-first operational readiness for Windows and Linux.</text>
  <text x="424" y="354" fill="#8FB7C8" font-family="Inter, Segoe UI, Arial, sans-serif" font-size="25" font-weight="520">Infrastructure exports, field workflows, cleanup, audit, and packaging.</text>
  <text x="424" y="414" fill="#1FB6A6" font-family="IBM Plex Mono, Cascadia Code, Consolas, monospace" font-size="23">exports / field ops / cleanup / audit / packaging</text>
</svg>
