<!--
Copyright (c) 2026 Wonder Piece Studio.
All Rights Reserved.
-->
<svg xmlns="http://www.w3.org/2000/svg" viewBox="0 0 512 512" role="img" aria-labelledby="title desc">
  <title id="title">PowerShell file</title><desc id="desc">BayouFinds Aqua Pro PowerShell file icon.</desc>
  <defs><linearGradient id="page" x1="0" x2="1" y1="0" y2="1"><stop offset="0" stop-color="#93d7ff"/><stop offset="0.52" stop-color="#5f9fca"/><stop offset="1" stop-color="#2f5f82"/></linearGradient><linearGradient id="shine" x1="0" x2="0" y1="0" y2="1"><stop offset="0" stop-color="#fff" stop-opacity=".58"/><stop offset="1" stop-color="#fff" stop-opacity="0"/></linearGradient><filter id="shadow" x="-20%" y="-20%" width="140%" height="150%"><feDropShadow dx="0" dy="22" stdDeviation="20" flood-color="#000" flood-opacity=".34"/></filter></defs>
  <g filter="url(#shadow)"><path d="M112 54h202l86 86v304c0 28-22 50-50 50H112c-28 0-50-22-50-50V104c0-28 22-50 50-50z" fill="url(#page)"/><path d="M314 54v78c0 14 12 26 26 26h60z" fill="#d8f1ff" opacity=".42"/><path d="M92 102c0-14 11-25 25-25h180c14 0 25 11 25 25v20H92z" fill="url(#shine)"/><path d="m143 235 68 49-68 49" fill="none" stroke="#082435" stroke-width="28" stroke-linecap="round" stroke-linejoin="round" opacity=".42"/><path d="M229 350h118" stroke="#082435" stroke-width="24" stroke-linecap="round" opacity=".42"/><text x="256" y="430" text-anchor="middle" fill="#edf8ff" font-family="Inter, Segoe UI, Arial, sans-serif" font-size="58" font-weight="800">PS</text></g>
</svg>
