<!--
Copyright (c) 2026 Wonder Piece Studio.
All Rights Reserved.
-->
<svg xmlns="http://www.w3.org/2000/svg" viewBox="0 0 512 512" role="img" aria-labelledby="title desc">
  <title id="title">Markdown file</title><desc id="desc">BayouFinds Aqua Pro Markdown file icon.</desc>
  <defs><linearGradient id="page" x1="0" x2="1" y1="0" y2="1"><stop offset="0" stop-color="#c9d5d1"/><stop offset=".52" stop-color="#8ea29b"/><stop offset="1" stop-color="#394942"/></linearGradient><filter id="shadow" x="-20%" y="-20%" width="140%" height="150%"><feDropShadow dx="0" dy="22" stdDeviation="20" flood-color="#000" flood-opacity=".35"/></filter></defs>
  <g filter="url(#shadow)"><path d="M112 54h202l86 86v304c0 28-22 50-50 50H112c-28 0-50-22-50-50V104c0-28 22-50 50-50z" fill="url(#page)"/><path d="M314 54v78c0 14 12 26 26 26h60z" fill="#eff7f3" opacity=".35"/><path d="M139 270v72m0-72 52 56 52-56v72m58-72v72m0 0-31-31m31 31 31-31" fill="none" stroke="#20302a" stroke-width="22" stroke-linecap="round" stroke-linejoin="round" opacity=".42"/><text x="256" y="430" text-anchor="middle" fill="#f0f7f4" font-family="Inter, Segoe UI, Arial, sans-serif" font-size="56" font-weight="800">MD</text></g>
</svg>
