<!--
Copyright (c) 2026 Wonder Piece Studio.
All Rights Reserved.
-->
<svg xmlns="http://www.w3.org/2000/svg" viewBox="0 0 512 512" role="img" aria-labelledby="title desc">
  <title id="title">PDF file</title><desc id="desc">BayouFinds Aqua Pro PDF file icon.</desc>
  <defs><linearGradient id="page" x1="0" x2="1" y1="0" y2="1"><stop offset="0" stop-color="#ffb6a8"/><stop offset=".52" stop-color="#c95f55"/><stop offset="1" stop-color="#7a2d2c"/></linearGradient><filter id="shadow" x="-20%" y="-20%" width="140%" height="150%"><feDropShadow dx="0" dy="22" stdDeviation="20" flood-color="#000" flood-opacity=".35"/></filter></defs>
  <g filter="url(#shadow)"><path d="M112 54h202l86 86v304c0 28-22 50-50 50H112c-28 0-50-22-50-50V104c0-28 22-50 50-50z" fill="url(#page)"/><path d="M314 54v78c0 14 12 26 26 26h60z" fill="#ffe4df" opacity=".38"/><path d="M150 314c62-22 135-34 218-36M206 348c26-66 42-116 45-151 2-20-18-22-23-5-13 45 16 101 58 130" fill="none" stroke="#4b1717" stroke-width="18" stroke-linecap="round" opacity=".38"/><text x="256" y="430" text-anchor="middle" fill="#fff1ee" font-family="Inter, Segoe UI, Arial, sans-serif" font-size="56" font-weight="800">PDF</text></g>
</svg>
