<!--
Copyright (c) 2026 Wonder Piece Studio.
All Rights Reserved.
-->
<svg xmlns="http://www.w3.org/2000/svg" viewBox="0 0 512 512" role="img" aria-labelledby="title desc">
  <title id="title">JSON file</title><desc id="desc">BayouFinds Aqua Pro JSON file icon.</desc>
  <defs><linearGradient id="page" x1="0" x2="1" y1="0" y2="1"><stop offset="0" stop-color="#9fd8f4"/><stop offset=".52" stop-color="#5f8fb8"/><stop offset="1" stop-color="#315a79"/></linearGradient><filter id="shadow" x="-20%" y="-20%" width="140%" height="150%"><feDropShadow dx="0" dy="22" stdDeviation="20" flood-color="#000" flood-opacity=".34"/></filter></defs>
  <g filter="url(#shadow)"><path d="M112 54h202l86 86v304c0 28-22 50-50 50H112c-28 0-50-22-50-50V104c0-28 22-50 50-50z" fill="url(#page)"/><path d="M314 54v78c0 14 12 26 26 26h60z" fill="#e1f4ff" opacity=".4"/><path d="M161 238c-32 0-47 17-47 46s15 46 47 46m190-92c32 0 47 17 47 46s-15 46-47 46" fill="none" stroke="#0c273a" stroke-width="24" stroke-linecap="round" opacity=".4"/><text x="256" y="430" text-anchor="middle" fill="#eff9ff" font-family="Inter, Segoe UI, Arial, sans-serif" font-size="48" font-weight="800">JSON</text></g>
</svg>
