<!--
Copyright (c) 2026 Wonder Piece Studio.
All Rights Reserved.
-->
<svg xmlns="http://www.w3.org/2000/svg" viewBox="0 0 256 256" role="img" aria-labelledby="title desc">
  <title id="title">Folder-Copper</title>
  <desc id="desc">BayouFinds muted copper enterprise folder icon.</desc>
  <defs>
    <linearGradient id="body" x1="0" x2="1" y1="0" y2="1">
      <stop offset="0" stop-color="#c58a5f"/>
      <stop offset="1" stop-color="#74482f"/>
    </linearGradient>
    <linearGradient id="tab" x1="0" x2="1">
      <stop offset="0" stop-color="#d6a77e"/>
      <stop offset="1" stop-color="#a86942"/>
    </linearGradient>
    <filter id="shadow" x="-15%" y="-15%" width="130%" height="140%">
      <feDropShadow dx="0" dy="10" stdDeviation="10" flood-color="#000000" flood-opacity="0.34"/>
    </filter>
  </defs>
  <rect width="256" height="256" rx="46" fill="#0d1218"/>
  <g filter="url(#shadow)">
    <path d="M30 72c0-13 10-23 23-23h51c8 0 15 4 20 10l14 16h65c13 0 23 10 23 23v17H30z" fill="url(#tab)"/>
    <path d="M28 101c0-14 11-25 25-25h150c14 0 25 11 25 25v82c0 14-11 25-25 25H53c-14 0-25-11-25-25z" fill="url(#body)"/>
    <path d="M48 112h160" stroke="#ffe0c1" stroke-width="6" stroke-linecap="round" opacity="0.22"/>
    <path d="M72 158h112m-88 24h64" stroke="#3b2418" stroke-width="9" stroke-linecap="round" opacity="0.22"/>
  </g>
</svg>
