<!--
Copyright (c) 2026 Wonder Piece Studio.
All Rights Reserved.
-->
<svg xmlns="http://www.w3.org/2000/svg" viewBox="0 0 512 512" role="img" aria-labelledby="title desc">
  <title id="title">folder-river-blue</title>
  <desc id="desc">BayouFinds Aqua Pro river blue folder icon mockup.</desc>
  <defs>
    <linearGradient id="tab" x1="0" x2="1" y1="0" y2="1">
      <stop offset="0" stop-color="#c3e8ff"/>
      <stop offset="0.55" stop-color="#72b6df"/>
      <stop offset="1" stop-color="#427ea8"/>
    </linearGradient>
    <linearGradient id="body" x1="0" x2="1" y1="0" y2="1">
      <stop offset="0" stop-color="#91d4ff"/>
      <stop offset="0.48" stop-color="#5b9fcb"/>
      <stop offset="1" stop-color="#2f5f82"/>
    </linearGradient>
    <linearGradient id="shine" x1="0" x2="0" y1="0" y2="1">
      <stop offset="0" stop-color="#ffffff" stop-opacity="0.58"/>
      <stop offset="1" stop-color="#ffffff" stop-opacity="0"/>
    </linearGradient>
    <filter id="shadow" x="-18%" y="-18%" width="136%" height="148%">
      <feDropShadow dx="0" dy="24" stdDeviation="22" flood-color="#000000" flood-opacity="0.34"/>
    </filter>
  </defs>
  <rect width="512" height="512" rx="96" fill="#0d1218"/>
  <g filter="url(#shadow)">
    <path d="M68 142c0-30 24-54 54-54h98c17 0 33 8 44 21l31 38h95c30 0 54 24 54 54v36H68z" fill="url(#tab)"/>
    <path d="M56 196c0-32 26-58 58-58h284c32 0 58 26 58 58v164c0 32-26 58-58 58H114c-32 0-58-26-58-58z" fill="url(#body)"/>
    <path d="M80 202c6-26 28-44 56-44h239c27 0 50 18 56 44z" fill="#ffffff" opacity="0.14"/>
    <path d="M92 220c0-22 18-40 40-40h248c22 0 40 18 40 40v18H92z" fill="url(#shine)" opacity="0.78"/>
    <path d="M112 246h288" stroke="#f4fbff" stroke-width="10" stroke-linecap="round" opacity="0.34"/>
    <path d="M144 322c42 14 83 14 124 0s79-14 116 0" fill="none" stroke="#163a52" stroke-width="14" stroke-linecap="round" opacity="0.24"/>
    <path d="M165 354c34 10 68 9 102-2 34-12 65-12 94 0" fill="none" stroke="#163a52" stroke-width="10" stroke-linecap="round" opacity="0.18"/>
  </g>
</svg>
