<!--
Copyright (c) 2026 Wonder Piece Studio.
All Rights Reserved.
-->
<svg xmlns="http://www.w3.org/2000/svg" viewBox="0 0 512 512" role="img" aria-labelledby="title desc">
  <title id="title">folder-swamp-moss</title>
  <desc id="desc">BayouFinds Aqua Pro swamp moss folder icon mockup.</desc>
  <defs>
    <linearGradient id="tab" x1="0" x2="1" y1="0" y2="1">
      <stop offset="0" stop-color="#c9dc8f"/>
      <stop offset="0.55" stop-color="#8fae52"/>
      <stop offset="1" stop-color="#5f7438"/>
    </linearGradient>
    <linearGradient id="body" x1="0" x2="1" y1="0" y2="1">
      <stop offset="0" stop-color="#aecd68"/>
      <stop offset="0.5" stop-color="#789a42"/>
      <stop offset="1" stop-color="#42562b"/>
    </linearGradient>
    <linearGradient id="shine" x1="0" x2="0" y1="0" y2="1">
      <stop offset="0" stop-color="#ffffff" stop-opacity="0.52"/>
      <stop offset="1" stop-color="#ffffff" stop-opacity="0"/>
    </linearGradient>
    <filter id="shadow" x="-18%" y="-18%" width="136%" height="148%">
      <feDropShadow dx="0" dy="24" stdDeviation="22" flood-color="#000000" flood-opacity="0.35"/>
    </filter>
  </defs>
  <rect width="512" height="512" rx="96" fill="#0d1218"/>
  <g filter="url(#shadow)">
    <path d="M68 142c0-30 24-54 54-54h98c17 0 33 8 44 21l31 38h95c30 0 54 24 54 54v36H68z" fill="url(#tab)"/>
    <path d="M56 196c0-32 26-58 58-58h284c32 0 58 26 58 58v164c0 32-26 58-58 58H114c-32 0-58-26-58-58z" fill="url(#body)"/>
    <path d="M80 202c6-26 28-44 56-44h239c27 0 50 18 56 44z" fill="#ffffff" opacity="0.13"/>
    <path d="M92 220c0-22 18-40 40-40h248c22 0 40 18 40 40v18H92z" fill="url(#shine)" opacity="0.74"/>
    <path d="M112 246h288" stroke="#f4ffd5" stroke-width="10" stroke-linecap="round" opacity="0.28"/>
    <path d="M158 318c31-15 62-18 93-9 31 8 66 4 104-13-18 35-46 56-84 62-39 7-76-3-113-28 13 1 28-3 43-11-15 2-29 2-43-1z" fill="#253315" opacity="0.24"/>
  </g>
</svg>
