<svg xmlns="http://www.w3.org/2000/svg" width="1200" height="900" viewBox="0 0 1200 900">
  <rect width="1200" height="900" fill="#f5f7fa"/>
  <rect x="0" y="0" width="1200" height="126" fill="#17212f"/>
  <text x="48" y="38" fill="#1fb6a6" font-family="Arial, sans-serif" font-size="13" font-weight="700" letter-spacing="2">BAYOUOPS SUITE PRO</text>
  <text x="48" y="72" fill="#ffffff" font-family="Arial, sans-serif" font-size="34" font-weight="700">Network Readiness Dashboard</text>
  <text x="48" y="100" fill="#cbd5e1" font-family="Arial, sans-serif" font-size="15">CSV-driven Windows network inventory evidence - generated 2026-06-07T02:13:08.919Z</text>
  <rect x="908" y="34" width="244" height="48" rx="8" fill="#9f2f24"/>
  <text x="1030" y="64" text-anchor="middle" fill="#ffffff" font-family="Arial, sans-serif" font-size="16" font-weight="700">Red: Action Required</text>
  <g font-family="Arial, sans-serif">
    
      <rect x="48" y="164" width="250" height="96" rx="8" fill="#ffffff" stroke="#d9e0e8"/>
      <text x="70" y="210" fill="#17212f" font-size="44" font-weight="700">5</text>
      <text x="70" y="242" fill="#64748b" font-size="15" font-weight="700">Total Systems</text>
      <rect x="330" y="164" width="250" height="96" rx="8" fill="#ffffff" stroke="#d9e0e8"/>
      <text x="352" y="210" fill="#12645a" font-size="44" font-weight="700">4</text>
      <text x="352" y="242" fill="#64748b" font-size="15" font-weight="700">Online Systems</text>
      <rect x="612" y="164" width="250" height="96" rx="8" fill="#ffffff" stroke="#d9e0e8"/>
      <text x="634" y="210" fill="#9f2f24" font-size="44" font-weight="700">1</text>
      <text x="634" y="242" fill="#64748b" font-size="15" font-weight="700">Offline Systems</text>
      <rect x="894" y="164" width="250" height="96" rx="8" fill="#ffffff" stroke="#d9e0e8"/>
      <text x="916" y="210" fill="#9a650f" font-size="44" font-weight="700">1</text>
      <text x="916" y="242" fill="#64748b" font-size="15" font-weight="700">Reboot Required</text>
      <rect x="48" y="286" width="250" height="96" rx="8" fill="#ffffff" stroke="#d9e0e8"/>
      <text x="70" y="332" fill="#9f2f24" font-size="44" font-weight="700">1</text>
      <text x="70" y="364" fill="#64748b" font-size="15" font-weight="700">Collection Failures</text>
      <rect x="330" y="286" width="250" height="96" rx="8" fill="#ffffff" stroke="#d9e0e8"/>
      <text x="352" y="332" fill="#12645a" font-size="44" font-weight="700">40%</text>
      <text x="352" y="364" fill="#64748b" font-size="15" font-weight="700">Healthy Readiness</text>
      <rect x="612" y="286" width="250" height="96" rx="8" fill="#ffffff" stroke="#d9e0e8"/>
      <text x="634" y="332" fill="#9a650f" font-size="44" font-weight="700">1</text>
      <text x="634" y="364" fill="#64748b" font-size="15" font-weight="700">Attention Required</text>
      <rect x="894" y="286" width="250" height="96" rx="8" fill="#ffffff" stroke="#d9e0e8"/>
      <text x="916" y="332" fill="#9f2f24" font-size="22" font-weight="700">Red: Action Required</text>
      <text x="916" y="364" fill="#64748b" font-size="15" font-weight="700">Overall Status</text>
    <rect x="48" y="420" width="342" height="170" rx="8" fill="#ffffff" stroke="#d9e0e8"/>
    <text x="72" y="456" fill="#17212f" font-size="20" font-weight="700">Green: Healthy</text>
    <text x="72" y="506" fill="#12645a" font-size="54" font-weight="800">2</text>
    <text x="72" y="544" fill="#64748b" font-size="15">Online and collected without reboot signal.</text>
    <rect x="428" y="420" width="342" height="170" rx="8" fill="#ffffff" stroke="#d9e0e8"/>
    <text x="452" y="456" fill="#17212f" font-size="20" font-weight="700">Yellow: Attention Required</text>
    <text x="452" y="506" fill="#9a650f" font-size="54" font-weight="800">1</text>
    <text x="452" y="544" fill="#64748b" font-size="15">Reboot or evidence completeness review.</text>
    <rect x="810" y="420" width="342" height="170" rx="8" fill="#ffffff" stroke="#d9e0e8"/>
    <text x="834" y="456" fill="#17212f" font-size="20" font-weight="700">Red: Action Required</text>
    <text x="834" y="506" fill="#9f2f24" font-size="54" font-weight="800">2</text>
    <text x="834" y="544" fill="#64748b" font-size="15">Offline or collection failure follow-up.</text>
    <rect x="48" y="626" width="1104" height="238" rx="8" fill="#ffffff" stroke="#d9e0e8"/>
    <text x="72" y="660" fill="#17212f" font-size="21" font-weight="700">Network Attention Items</text>
    
      <text x="72" y="708" fill="#17212f" font-size="14" font-weight="700">BAYOU-SQL01</text>
      <text x="230" y="708" fill="#475569" font-size="13">Yellow: Attention Required</text>
      <text x="448" y="708" fill="#475569" font-size="13">Collected</text>
      <text x="720" y="708" fill="#64748b" font-size="13">Microsoft Windows Server 2019 Standard</text>
      <text x="72" y="748" fill="#17212f" font-size="14" font-weight="700">BAYOU-FILE01</text>
      <text x="230" y="748" fill="#475569" font-size="13">Red: Action Required</text>
      <text x="448" y="748" fill="#475569" font-size="13">Ping failed</text>
      <text x="720" y="748" fill="#64748b" font-size="13">Unknown</text>
      <text x="72" y="788" fill="#17212f" font-size="14" font-weight="700">BAYOU-WKS07</text>
      <text x="230" y="788" fill="#475569" font-size="13">Red: Action Required</text>
      <text x="448" y="788" fill="#475569" font-size="13">Collection failed: WinRM access denied</text>
      <text x="720" y="788" fill="#64748b" font-size="13">Unknown</text>
    <text x="72" y="836" fill="#64748b" font-size="13">Operational Advisory Only - Human Approval Required. No scanning, credential collection, remediation, or endpoint modification.</text>
    <text x="48" y="892" fill="#64748b" font-size="12">© 2026 BayouFinds.com — Dewayne Cox &amp; Cheri Cox. All Rights Reserved.</text>
  </g>
</svg>