<!--
Copyright (c) 2026 Wonder Piece Studio.
All Rights Reserved.
-->
<svg xmlns="http://www.w3.org/2000/svg" viewBox="0 0 3840 2160" width="3840" height="2160" role="img" aria-labelledby="title desc">
  <title id="title">BayouFinds Fedora 42 enterprise wallpaper</title>
  <desc id="desc">Dark BayouOps workstation wallpaper with enterprise monitoring graphics and branded text.</desc>
  <defs>
    <linearGradient id="shade" x1="0" x2="1" y1="0" y2="1">
      <stop offset="0" stop-color="#05080c" stop-opacity="0.96"/>
      <stop offset="0.55" stop-color="#0d151c" stop-opacity="0.82"/>
      <stop offset="1" stop-color="#030507" stop-opacity="0.96"/>
    </linearGradient>
    <linearGradient id="lineGradient" x1="0" x2="1">
      <stop offset="0" stop-color="#72c689" stop-opacity="0"/>
      <stop offset="0.5" stop-color="#72c689" stop-opacity="0.35"/>
      <stop offset="1" stop-color="#5f8fb8" stop-opacity="0"/>
    </linearGradient>
    <linearGradient id="markGradient" x1="0" x2="1" y1="0" y2="1">
      <stop offset="0" stop-color="#5fbf7a"/>
      <stop offset="1" stop-color="#5f8fb8"/>
    </linearGradient>
    <filter id="shadow" x="-20%" y="-20%" width="140%" height="140%">
      <feDropShadow dx="0" dy="18" stdDeviation="18" flood-color="#000000" flood-opacity="0.45"/>
    </filter>
  </defs>
  <image href="../assets/generated/bayou-ops-background-base.png" x="0" y="0" width="3840" height="2160" preserveAspectRatio="xMidYMid slice"/>
  <rect width="3840" height="2160" fill="url(#shade)"/>
  <rect width="3840" height="2160" fill="#05080c" opacity="0.42"/>
  <g opacity="0.35" stroke="url(#lineGradient)" stroke-width="4" fill="none">
    <path d="M1720 430h420l110 110h360"/>
    <path d="M1600 600h310l80 80h510"/>
    <path d="M1760 760h260l90 90h420"/>
    <path d="M2420 1090h420l120-120h500"/>
    <path d="M2300 1260h520l100 100h390"/>
  </g>
  <g opacity="0.24" fill="#5f8fb8">
    <rect x="2450" y="470" width="360" height="170" rx="12"/>
    <rect x="2860" y="470" width="360" height="170" rx="12"/>
    <rect x="2530" y="745" width="640" height="320" rx="18"/>
    <rect x="2380" y="1180" width="980" height="420" rx="18"/>
  </g>
  <g filter="url(#shadow)">
    <g transform="translate(240 270) scale(1.45)">
      <path d="M90 18c39.8 0 72 32.2 72 72s-32.2 72-72 72-72-32.2-72-72 32.2-72 72-72z" fill="#111820" stroke="#243340" stroke-width="4"/>
      <path d="M46 106c16-22 38-35 65-39 14-2 29-8 42-19-6 28-19 50-40 65-21 16-44 20-67 12 8-3 16-9 24-18-8 1-16 1-24-1z" fill="url(#markGradient)"/>
      <path d="M51 123c26 10 52 9 78-3" fill="none" stroke="#5f8fb8" stroke-width="6" stroke-linecap="round" opacity="0.75"/>
      <path d="M64 83h52m-39 18h58" fill="none" stroke="#d8efe1" stroke-width="5" stroke-linecap="round" opacity="0.55"/>
      <text x="190" y="80" fill="#f4f7f6" font-family="Inter, Segoe UI, Cantarell, Arial, sans-serif" font-size="47" font-weight="800" letter-spacing="0.5">BayouFinds</text>
      <text x="193" y="126" fill="#72c689" font-family="Inter, Segoe UI, Cantarell, Arial, sans-serif" font-size="34" font-weight="700" letter-spacing="1.8">BayouOps</text>
      <text x="194" y="154" fill="#8fa8ba" font-family="Inter, Segoe UI, Cantarell, Arial, sans-serif" font-size="17" font-weight="500" letter-spacing="2.2">ENTERPRISE OPERATIONS VISIBILITY</text>
    </g>
    <text x="276" y="690" fill="#f3f8f5" font-family="Inter, Segoe UI, Cantarell, Arial, sans-serif" font-size="88" font-weight="700">Built in Louisiana. Designed for Operators.</text>
    <text x="280" y="780" fill="#9eb1bf" font-family="Inter, Segoe UI, Cantarell, Arial, sans-serif" font-size="38" font-weight="500" letter-spacing="2">Fedora 42 Enterprise Workstation Theme Pack</text>
  </g>
  <text x="280" y="2020" fill="#8aa0ad" font-family="Inter, Segoe UI, Cantarell, Arial, sans-serif" font-size="26">Copyright (c) 2026 Wonder Piece Studio. All Rights Reserved.</text>
</svg>
